<?xml version="1.0" encoding="UTF-8"?>
<svg width="400" height="400" viewBox="0 0 400 400" fill="none" xmlns="http://www.w3.org/2000/svg">
  <g opacity="0.8">
    <path d="M200 350C282.843 350 350 282.843 350 200C350 117.157 282.843 50 200 50C117.157 50 50 117.157 50 200C50 282.843 117.157 350 200 350Z" fill="url(#paint0_radial)" fill-opacity="0.6"/>
    <path d="M220 320C288.366 320 344 264.366 344 196C344 127.634 288.366 72 220 72C151.634 72 96 127.634 96 196C96 264.366 151.634 320 220 320Z" fill="url(#paint1_radial)" fill-opacity="0.4"/>
    <path d="M180 280C235.228 280 280 235.228 280 180C280 124.772 235.228 80 180 80C124.772 80 80 124.772 80 180C80 235.228 124.772 280 180 280Z" fill="url(#paint2_radial)" fill-opacity="0.3"/>
  </g>
  <defs>
    <radialGradient id="paint0_radial" cx="0" cy="0" r="1" gradientUnits="userSpaceOnUse" gradientTransform="translate(200 200) rotate(90) scale(150)">
      <stop stop-color="#C084FC"/>
      <stop offset="1" stop-color="#A855F7" stop-opacity="0"/>
    </radialGradient>
    <radialGradient id="paint1_radial" cx="0" cy="0" r="1" gradientUnits="userSpaceOnUse" gradientTransform="translate(220 196) rotate(90) scale(124)">
      <stop stop-color="#D8B4FE"/>
      <stop offset="1" stop-color="#C084FC" stop-opacity="0"/>
    </radialGradient>
    <radialGradient id="paint2_radial" cx="0" cy="0" r="1" gradientUnits="userSpaceOnUse" gradientTransform="translate(180 180) rotate(90) scale(100)">
      <stop stop-color="#E9D5FF"/>
      <stop offset="1" stop-color="#D8B4FE" stop-opacity="0"/>
    </radialGradient>
  </defs>
</svg> 