<?xml version="1.0" encoding="UTF-8"?>
<svg width="400" height="400" viewBox="0 0 400 400" fill="none" xmlns="http://www.w3.org/2000/svg">
  <g opacity="0.8">
    <path d="M200 350C282.843 350 350 282.843 350 200C350 117.157 282.843 50 200 50C117.157 50 50 117.157 50 200C50 282.843 117.157 350 200 350Z" fill="url(#paint0_radial)" fill-opacity="0.6"/>
    <path d="M180 320C248.366 320 304 264.366 304 196C304 127.634 248.366 72 180 72C111.634 72 56 127.634 56 196C56 264.366 111.634 320 180 320Z" fill="url(#paint1_radial)" fill-opacity="0.4"/>
    <path d="M220 280C275.228 280 320 235.228 320 180C320 124.772 275.228 80 220 80C164.772 80 120 124.772 120 180C120 235.228 164.772 280 220 280Z" fill="url(#paint2_radial)" fill-opacity="0.3"/>
  </g>
  <defs>
    <radialGradient id="paint0_radial" cx="0" cy="0" r="1" gradientUnits="userSpaceOnUse" gradientTransform="translate(200 200) rotate(90) scale(150)">
      <stop stop-color="#60A5FA"/>
      <stop offset="1" stop-color="#3B82F6" stop-opacity="0"/>
    </radialGradient>
    <radialGradient id="paint1_radial" cx="0" cy="0" r="1" gradientUnits="userSpaceOnUse" gradientTransform="translate(180 196) rotate(90) scale(124)">
      <stop stop-color="#93C5FD"/>
      <stop offset="1" stop-color="#60A5FA" stop-opacity="0"/>
    </radialGradient>
    <radialGradient id="paint2_radial" cx="0" cy="0" r="1" gradientUnits="userSpaceOnUse" gradientTransform="translate(220 180) rotate(90) scale(100)">
      <stop stop-color="#BFDBFE"/>
      <stop offset="1" stop-color="#93C5FD" stop-opacity="0"/>
    </radialGradient>
  </defs>
</svg> 