<svg xmlns="http://www.w3.org/2000/svg" width="80" height="80" fill="none" xmlns:v="https://vecta.io/nano"><g transform="matrix(.984808 -.173648 .173648 .984808 5 10)"><rect width="24" height="24" rx="3" fill="#ff5252" stroke="#c62828" stroke-width="2"/><path d="M8 18l3-12h2l3 12h-2l-.8-3h-2.4l-.8 3H8zm3.2-5h1.6l-.8-3-.8 3z" fill="#fff"/></g><g transform="matrix(.996195 .087156 -.087156 .996195 28 25)"><rect width="24" height="24" rx="3" fill="#42a5f5" stroke="#1565c0" stroke-width="2"/><path d="M9 18V6h4c1.1 0 2 .4 2.6 1.1s.9 1.5.9 2.4-.3 1.6-.8 2.3c-.5.6-1.3 1.1-2.2 1.2h0c.9 0 1.7.4 2.2 1s.8 1.4.8 2.2c0 .9-.3 1.7-.9 2.4S14.1 20 13 20H9v-2zm2-7h2c.5 0 1-.1 1.3-.4s.5-.7.5-1.1-.2-.8-.5-1.1S13.5 8 13 8h-2v3zm0 5h2c.5 0 1-.1 1.3-.4s.5-.7.5-1.1-.2-.8-.5-1.1-.8-.4-1.3-.4h-2v3z" fill="#fff"/></g><g transform="matrix(.990268 -.139173 .139173 .990268 48 40)"><rect width="24" height="24" rx="3" fill="#7e57c2" stroke="#4527a0" stroke-width="2"/><path d="M16 7.5c-.5-.7-1.2-1.2-2-1.5s-1.6-.5-2.5-.5-1.7.2-2.5.5-1.5.8-2 1.5S6 9 5.8 9.8s-.3 1.7-.3 2.7.1 1.9.3 2.7.7 1.6 1.2 2.3 1.2 1.2 2 1.5 1.6.5 2.5.5 1.7-.2 2.5-.5 1.5-.8 2-1.5l-1.5-1c-.3.5-.7.8-1.3 1s-1.1.3-1.7.3-1.1-.1-1.7-.3-1-.5-1.4-.9-.7-.9-.9-1.5-.3-1.3-.3-2.1v-1c0-.8.1-1.5.3-2.1s.5-1.1.9-1.5.8-.7 1.4-.9 1.1-.3 1.7-.3 1.1.1 1.7.3 1 .5 1.3 1l1.5-1z" fill="#fff"/></g></svg>