<svg xmlns="http://www.w3.org/2000/svg" width="64" height="64" fill="none" xmlns:v="https://vecta.io/nano"><path d="M12.5 51.5L9 55l.5-12.5L42.315 9.685a2.93 2.93 0 0 1 4.171 0l7.829 7.829a2.93 2.93 0 0 1 0 4.171L21.5 54.5l-9-3z" fill="#ffcc80"/><path d="M9 55l.5-12.5 3 9L9 55z" fill="#f57c00"/><path d="M54.315 17.515l-7.829-7.829a2.93 2.93 0 0 0-4.171 0L37.5 14.5l12 12 4.815-4.815a2.93 2.93 0 0 0 0-4.171z" fill="#7c4dff"/><path d="M12.5 51.5l9 3 16-16-12-12-16 16 3 9z" fill="#fff9c4"/><path d="M49.5 26.5l-12-12-12 12 12 12 12-12z" fill="#ba68c8"/><path d="M37.5 14.5l12 12m-12-12l-12 12m12-12l4.815-4.815a2.93 2.93 0 0 1 4.171 0l7.829 7.829a2.93 2.93 0 0 1 0 4.171L49.5 26.5m0 0l-12 12m0 0l-16 16-9-3L9 55l.5-12.5 16-16m12 12l-12-12" stroke="#673ab7" stroke-width="2" stroke-linecap="round" stroke-linejoin="round"/></svg>